<svg id="Logo" xmlns="http://www.w3.org/2000/svg" viewBox="0 0 615 615"><defs><style>.cls-1{fill:#cbeaff;}.cls-1,.cls-10,.cls-11,.cls-12,.cls-13,.cls-3,.cls-9{stroke:#000;stroke-miterlimit:10;}.cls-1,.cls-11,.cls-3{stroke-width:2px;}.cls-2{fill:#2882e1;}.cls-3{fill:#31bfb4;}.cls-4{fill:#5ad352;}.cls-5{fill:#7df44c;}.cls-6{fill:#2988d9;}.cls-7{fill:#2dc0ba;}.cls-8{fill:#5cd559;}.cls-9{fill:#fcfeff;stroke-width:4px;}.cls-10,.cls-11,.cls-12,.cls-13{fill:#fff;}.cls-10{stroke-width:3px;}.cls-12{stroke-width:0.75px;}.cls-13{stroke-width:1px;}.cls-14{fill:#fffeff;}</style></defs><circle class="cls-1" cx="321.52" cy="309.73" r="242.75"/><path id="lop_1" data-name="lop 1" class="cls-2" d="M253.09,475.3c-2.46-2.13-8.45-6-20.43-13.78-16.71-10.84-18.82-11.2-22.32-15.67-7.22-9.24-11.26-24.39-5.23-34.2,2.5-4.08,6.89-6.52,15.68-11.4,10.55-5.88,12.8-4.8,19-9,1.88-1.28,14.14-9.9,15.67-21.38,1.44-10.76-7.17-19.49-15.2-28.5-36.49-40.91-26.57-48.76-48.45-63.65-24.24-16.49-36-7.1-57-23.27-18.61-14.36-26.67-35.3-30.57-50.75a246.51,246.51,0,0,1,41.61-60.08c37.31-39.6,77.68-55.82,90.23-60.47a229.8,229.8,0,0,1,44.44-11.58,80.48,80.48,0,0,1,10.09,11.4C300,95.88,298.34,101.5,306.29,110c6.28,6.72,13.83,9.72,20.42,12.35,9.26,3.68,11.48,2.33,19.48,5.7,4.32,1.81,14.14,5.94,20.42,14.72,8.2,11.45,9.62,29.74.95,42.75-11.41,17.13-35,17.14-38,17.1-13.72-.19-21.13-6.53-29.45-1.9-5.62,3.14-3.16,7.77-10,16.15-8.33,10.24-15.26,8.39-19,16.15-3.85,8-.71,18.69,4.27,25.18,6.07,7.9,13.18,7.35,27.55,12.82,11.84,4.51,34.7,13.22,43.23,31.35,4.73,10.05-.36,11.49,3.8,32.78,2.34,12,4.39,13.76,12.35,38,7.08,21.56,10.62,32.34,9.5,36.58-4.92,18.64-28.78,16.66-36.58,39.42-2.42,7.08-2.6,14.55-2.85,24.7-.37,15.48,2.22,18,.2,28-1.92,9.5-4.95,11.38-9.7,24.23a126.09,126.09,0,0,0-6.41,25.12c-7.25-.09-15.19-.5-23.69-1.43-7.9-.85-15.23-2-21.91-3.38a54.06,54.06,0,0,0,5.46-20.31C278.16,497.54,255.45,477.33,253.09,475.3Z"/><path id="lop_2" data-name="lop 2" class="cls-3" d="M329,184.83c13.11-.12,16.66-1.4,19.59-3.56,5-3.68,9.18-10.63,7.84-17.1-1.18-5.74-6.28-9.1-10-11.4-21.69-13.55-34.28-15.42-44.89-22.8-14.58-10.15-8.3-21-21.38-32.78-12.52-11.28-29.32-13-41.32-12.83A235.41,235.41,0,0,0,115.57,187.68c-2.64,20.91,1.56,28,5.7,30.64,6.18,4,12.65-1.55,21.38,2.85,7.3,3.67,6.36,9.34,14.25,20,3.36,4.52,13.67,18.37,29.21,22.09,10.25,2.45,13.52-1.72,27.08,2.13,5.9,1.68,13.34,3.9,15,9.27s-4.56,8.07-3.56,15.67c.77,5.87,5.41,11.38,10,14.25,3.49,2.2,4.83,1.52,6.42,3.56,3.39,4.39-1.14,9.64.71,15.68,1.45,4.73,5.77,6.54,15,11.4,15.29,8.07,22.93,12.11,24.94,15,8.55,12.12.82,37.21-13.54,49.17a67.75,67.75,0,0,1-23.51,12.35c-7.85,2-15.1,2-19.62,7.93a16.5,16.5,0,0,0-3.18,8.22c-.63,5.71,1.86,10.59,4.75,14.72,7.94,11.36,19.39,17.8,24.46,20.9,8.76,5.36,20.34,14.18,32.06,29.21a28.27,28.27,0,0,1,3.8,11.17,32.52,32.52,0,0,1-.47,9.5A58.4,58.4,0,0,1,283,525.17c-1.65,4.69-2.65,12.07.8,23.5A90.9,90.9,0,0,0,294.6,551a89.39,89.39,0,0,0,11.74,1,99.11,99.11,0,0,1,4.7-24c3.59-10.92,5.44-10.59,7.12-17.57,3.37-13.94-4.4-18.86-2.85-35.63a49.1,49.1,0,0,1,5.7-19.47c8.19-14.74,18.39-12.24,26.6-25.18,9.82-15.47,4.92-34.26,4.28-36.57-3.48-12.6-9.32-11.84-13.3-23.28-6.86-19.71,9.13-31.64,4.27-50.83-4.35-17.21-16.86-28.94-26.6-36.1a71,71,0,0,1-29.45-4.27c-19.76-7.44-41.12-26.08-38-40.38,1.26-5.75,6.58-11.28,7.6-12.35,2.56-2.66,4.27-3.51,13.78-11.4,4.52-3.75,5.87-5,6.17-7.12.55-3.8-2.92-5.52-2.37-10,.39-3.15,2.49-5.31,3.8-6.65a19.62,19.62,0,0,1,10-5.22C299.59,183.37,313.5,185,329,184.83Z"/><path class="cls-4" d="M302.25,472a34.69,34.69,0,0,1-24.94-5.7c-17.83-11.26-26.1-9.83-29.21-16.39s2.07-15,7.84-24.22c16.08-25.76,37.58-33.4,35.62-47-.41-2.89-1.42-2.85-3.56-10.69-1.8-6.59-1.66-8.75-3.56-18.52-1.84-9.48-2.81-14.28-5-17.1-3.23-4.19-5.28-3.22-11.4-8.55-5.66-4.93-4.61-6.38-10.69-12.83-8.33-8.82-11.64-7.53-15.67-14.25-3.73-6.21-1-7.5-5-14.25-4.66-7.9-9.12-7.37-12.11-14.6-2.56-6.19,0-8.19-2.85-12.47-2.23-3.31-6.69-4.87-9.45-6a44.2,44.2,0,0,0-5.52-1.81c-14.16-4-14.55-4-15.67-4.63-2.91-1.68-6.42-5.34-8.19-14.25a21,21,0,0,1-6.42,1.42c-7,.43-16.17-2.57-18.88-8.9-1.85-4.33.79-6.78-1.42-11.76a16.11,16.11,0,0,0-6.77-7.12,118.9,118.9,0,0,1,32.2,19,46.08,46.08,0,0,0,6.27,10.23c5.55,6.82,12,10.62,18.61,13.83,24.9,12.06,34.77,7.29,40.89,16.81,1.57,2.43.27,1.74,5.34,19.95,2.55,9.14,3.82,13.72,5,16.74,5.2,13.48,13,14.82,27.79,31.35,8.27,9.27,15.29,17.14,19.59,29.57,2.41,7,7.6,22,.71,33.49-5.31,8.89-12.21,6.29-21.73,16.39-2.6,2.76-14.29,15.9-12.11,31.7C273.89,455.26,286,467.15,302.25,472Z"/><path class="cls-5" d="M173.29,211.19a92.36,92.36,0,0,1-27.08-9.5c-2.75-2.44-10.24-9.75-10-19.47.23-8.45,6.18-14.23,14.25-21.85,11.91-11.25,15.88-9.9,29-20.43,14.74-11.85,14.39-17.34,26.13-24.7a65.85,65.85,0,0,1,29.45-9.5,31.82,31.82,0,0,1,13.77,19.48c3.33-5.68,7.33-7.47,9-8.08,10.27-3.66,23.74,5.08,27.07,16.15a21.6,21.6,0,0,1,0,11.88,8.81,8.81,0,0,1,6.18-.48,9.47,9.47,0,0,1,6.17,8.55,38.93,38.93,0,0,1,40.85,8.55,22.45,22.45,0,0,1-2.37,10c-2.94,5.8-8.92,11.1-15.68,11.87-3.69.42-4.49-.87-11.87-.95a64.09,64.09,0,0,0-8.55.48L296.31,177c-2.51,1.13-5.21,2.25-8.07,3.33-3.48,1.3-6.82,2.4-10,3.32l.48,5.23a149.5,149.5,0,0,1-15.2,18.52c-13.49,14-22,17.36-23.75,27.55a27.37,27.37,0,0,0,3.32,17.58c3,5.18,7.07,7.41,11.88,15.67a57.33,57.33,0,0,1,3.32,6.65c5.37,3.61,13.32,8.72,23.28,14.25,27.76,15.43,37.93,15.73,45.12,24.7,6.74,8.41,10.73,24.28-1.42,57a21.69,21.69,0,0,1,8.07,9c3.87,8.39,1.57,19.15-5.7,27.55a30.79,30.79,0,0,1,1.9,10.93c-.16,14.86-11.39,24.62-13.77,26.6a21.25,21.25,0,0,1,.95,8.55c-1.44,14.5-18.21,21.79-19.48,22.32-3.28-4.64-8.26-11.45-14.72-19.47-7.36-9.13-7.74-8.78-8.55-10.93C267.05,427,295,400.48,296.31,399.3c6.56-6.09,7.48-5.09,9.5-8.55,9-15.49-4.8-43.25-20.42-59.86C275,319.8,270.79,321.2,264,310.47c-10.78-17.07-12.58-32.3-12.58-32.3-.8-6.77-.36-12.45-4.75-16.86-2.54-2.55-5.25-3.24-11.88-5.23s-12.88-4.47-19.48-6.17C207.29,247.83,194.42,239.4,173.29,211.19Z"/><path d="M192.81,384.6l7.85-6.39a1.5,1.5,0,0,0,0-2.12,1.54,1.54,0,0,0-2.12,0l-7.85,6.39a1.5,1.5,0,0,0,0,2.12,1.53,1.53,0,0,0,2.12,0Z"/><path d="M178,398.53q.26-.37.54-.75a2.43,2.43,0,0,1,.14-.2l.06-.08c-.15.2.05-.06.07-.08l.12-.15c.4-.49.81-1,1.24-1.44a26.62,26.62,0,0,1,2.74-2.57,1.48,1.48,0,0,0,.44-1.06,1.5,1.5,0,0,0-1.5-1.5,1.76,1.76,0,0,0-1.06.44,28.37,28.37,0,0,0-5.38,5.88,1.5,1.5,0,0,0,.54,2.05,1.54,1.54,0,0,0,2-.54Z"/><path class="cls-6" d="M562.56,292.18a266.83,266.83,0,0,1-1.31,50.11c-1.24,9.82-2.73,16.82-3.12,18.62a229.24,229.24,0,0,1-6.68,23.87c-2.09,6.44-3.84,11.86-6.86,19a177.71,177.71,0,0,1-9.35,18.89c-10.41-7.08-18.51-7.36-22.8-7-6,.57-15.24,1.22-26.43,12a29.66,29.66,0,0,1-13.41,7.64c-16,3.87-34.55-7.72-42.75-22.09-11.05-19.35,2.13-34.32-9.32-46-9.71-9.88-22.39-2.38-34.14-13.87-6.46-6.31-4.07-10-10.69-27.08-11.26-29.07-25.07-36.24-21.44-51,.27-1.07,2.35-9.05,9.27-14.25,8.57-6.45,14.81-1.29,22.86-6.75s4.09-14.2,15-27.79a98.42,98.42,0,0,1,13.54-15.67c22.66-20.73,65.6-17.93,95.47-6.42,11.45,4.42,22.55,8.27,32,19.1,11.65,13.35,14.86,30.08,17.57,44.18C561.52,275.91,561.89,281.66,562.56,292.18Z"/><path class="cls-7" d="M428.69,361.4c-3.08-3.56-3.4-1.12-26.72-15-11.62-6.89-14.23-9.09-16-12.82-4-8.31,1.22-13.29-3.21-22.45-2.31-4.77-4-4-11.75-12.82-8.06-9.2-12.09-13.8-11.76-19.24.47-7.7,8.53-13.59,13.89-16,8.77-4,12.18.42,18.17-3.21,8.91-5.39,4.28-16.9,13.9-27.79,5-5.67,10.83-7.72,19.23-10.69,9-3.15,17.76-4.4,35.27-4.27,28,.21,31.59,7.55,44.89,3.21,14.39-4.7,16.67-14.76,24.58-13.9,14.44,1.58,21.69,36.74,23.52,46C558,279.11,562,325.72,542,391.33a96.1,96.1,0,0,1-26.72,11.76c-13.51,3.61-17.29-.6-27.79,3.2-14.81,5.36-14.92,15-27.79,18.17-7.54,1.86-20.59,1.76-27.31-5.67C419.5,404.55,442.15,377,428.69,361.4Z"/><path class="cls-8" d="M546.64,350.37c2.94,2.07,4,5.23,4.75,7.6,3.77,11.46-3.53,29.45-14.71,32.78-7.48,2.24-18.95-1.41-26.14,0-8.8,1.72-7.31,4.11-15.67,5.22-9.11,1.21-14.11-1.18-25.18,1.43-4.21,1-3.67,1.37-6.65,1.9-8.16,1.42-18.71-.36-24.22-5.7-8.11-7.86-8.08-26.09,4.27-40.86a21.4,21.4,0,0,1-3.8-4.75c-4.13-7-2.93-14.48-2.37-17.1-9.16,8-22.33,7.72-29.93.48-5.91-5.63-7.79-14.85-4.75-23.28-3.94-3.54-8.66-9.09-10-16.62-2.76-15.8,11.35-29.62,21.37-39.43,6.13-6,13.05-12.77,24.7-17.1,16.8-6.24,31.85-3.09,38-1.42A41.55,41.55,0,0,1,493.92,215c4.57-2.43,10.86-5.82,17.57-4.27,13.43,3.08,20.59,24,19.48,39.9a48.18,48.18,0,0,1-8.55,23.75,22.76,22.76,0,0,1,10.45,7.6c8,10.69,2.23,24.42,1.9,25.17l-25.18,29a63.33,63.33,0,0,1,14.25,4.75c4.77,2.26,4.85,3.05,9,4.75C538,347.69,543.13,347.88,546.64,350.37Z"/><path class="cls-5" d="M454,338.49a58.58,58.58,0,0,1-26.6-24.22c-1.63-2.91-16-29.65-.48-54.15,15-23.81,44.23-23.32,45.6-23.28a46,46,0,0,1,15.68-14.25c11-6,31-10.72,41.32,0,8.19,8.49,6,22.13,5.23,26.6-2.28,13.93-11.17,22.46-14.25,25.18,1.61.34,10.2,2.31,14.25,10s.82,15.83-.56,19.32c-2.73,6.94-6.34,8.73-13.22,17.73a108.08,108.08,0,0,0-10,15.68c1-.24,8.05-1.72,13.77,2.85a15.3,15.3,0,0,1,4.75,6.65,16.66,16.66,0,0,1,10.93.47,17.09,17.09,0,0,1,8.07,7.6c4.78,8,7.19,25.12-5.22,35.16a26.57,26.57,0,0,1-34.68-1.43,22.56,22.56,0,0,1-9.5,6.18c-14.42,4.57-31.53-8.2-39.42-20.91C450.65,359.06,453,343.47,454,338.49Z"/><path class="cls-9" d="M387.75,506.17a30.69,30.69,0,0,1-37.05,6.42c-13-7.12-19-23.32-13.54-37.77-2.61-1.23-10-5.13-13.53-13.54-4.56-10.76-1.21-24.92,8.55-31.35a23.63,23.63,0,0,1,14.25-3.56c.9-2.16,5.67-13,17.81-17.81,16.58-6.55,31.29,4.39,32.06,5,2.51-3.26,10.05-12.14,22.8-15,15.06-3.33,31.35,3.11,42,16.39,1.48-.44,18.24-5.08,31.35,5.7C503.87,430,507.63,447,501,462a38.22,38.22,0,0,1-7.84,10.68A38.68,38.68,0,0,1,476.82,482c.36,5,.31,15.39-6.42,23.51-10.54,12.73-33.74,15.32-54.86,2.85a26.27,26.27,0,0,1-27.79-2.14Z"/><path class="cls-10" d="M161.17,324.28A42.1,42.1,0,0,0,179.7,308.6c2.06-3.21,6.9-11,6.41-21.37-.66-14-10.85-28.94-25.65-32.07a31.08,31.08,0,0,0-18.52,2.14c-1.66-3.71-6.95-14.21-18.53-19.24-14.88-6.46-34.07-1.25-47,13.54-1.66-1.15-13.46-9-28.5-5-15.9,4.27-22.08,18.27-22.8,19.95a26.05,26.05,0,0,0-15.67,7.13,26.11,26.11,0,0,0-5,29.21c4.52,9.55,13.69,12.87,15.68,13.54-.77,2.68-4.23,15.75,2.85,25.65,8.63,12.07,30.16,15.57,49.16,3.56a20.24,20.24,0,0,0,25.65,2.14c3,3,11.81,11.09,24.23,11.4C138.84,359.62,155.67,345.62,161.17,324.28Z"/><path class="cls-10" d="M415.54,132.82c-1.65.62-13.79,5.44-17.1,17.1-3.52,12.4,4.34,27.76,19.95,34.2-1,3.54-4.65,17.58,2.85,29.21,9.46,14.67,33.25,20.29,55.58,9.26a53,53,0,0,0,32.06-.71c10.49,12.66,26.86,18.54,42,15,18.52-4.36,32.22-22.08,32.06-42.75,16.77-6.67,28.77-20.85,29.93-36.34,1.65-22.07-18.84-45.55-48.45-47-2.72-3.12-15-16.53-35.63-18.53-25.15-2.43-42,14.14-44.18,16.39-3.37-1.88-17.76-9.41-35.62-5C425.8,109.36,416.55,130.41,415.54,132.82Z"/><path d="M587,133a19.85,19.85,0,0,1,4.61,25.36c-1,1.65,1.58,3.16,2.59,1.51,5.63-9.19,3.41-22.28-5.08-29-1.49-1.18-3.63.93-2.12,2.12Z"/><path d="M591.23,164.82l-1.06-.38a1.22,1.22,0,0,0-.6,0,1.09,1.09,0,0,0-.55.18,1,1,0,0,0-.42.39,1,1,0,0,0-.27.51l-.06.4a1.42,1.42,0,0,0,.21.75l.23.31a1.57,1.57,0,0,0,.66.38l1.06.38a1,1,0,0,0,.6,0,1.12,1.12,0,0,0,.56-.18,1.18,1.18,0,0,0,.42-.38,1.26,1.26,0,0,0,.27-.51l.05-.4a1.57,1.57,0,0,0-.2-.76l-.24-.3a1.49,1.49,0,0,0-.66-.39Z"/><path d="M63.81,287.43a24.54,24.54,0,0,0,13.33,21.38c1.72.86,3.24-1.72,1.51-2.59a21.55,21.55,0,0,1-11.84-18.79,1.5,1.5,0,0,0-3,0Z"/><path d="M67.62,282.1l-.71-.72a1.24,1.24,0,0,0-.48-.31,1.29,1.29,0,0,0-.58-.13,1.27,1.27,0,0,0-.58.13,1.17,1.17,0,0,0-.48.31l-.24.31a1.5,1.5,0,0,0-.2.75l.05.4a1.39,1.39,0,0,0,.39.66l.71.72a1.24,1.24,0,0,0,.48.31,1.36,1.36,0,0,0,1.16,0,1.17,1.17,0,0,0,.48-.31l.24-.31a1.5,1.5,0,0,0,.2-.75l0-.4a1.39,1.39,0,0,0-.39-.66Z"/><path d="M168.59,271.68a23.84,23.84,0,0,1-.09,27.87c-1.15,1.55,1.45,3.05,2.59,1.51a26.72,26.72,0,0,0,.09-30.89c-1.13-1.55-3.73-.05-2.59,1.51Z"/><path d="M165.3,305h0l-.05-.4v.06l.05-.4a.09.09,0,0,1,0,0l.15-.36,0,0,.24-.31,0,0,.3-.23-.06,0,.36-.15-.09,0,.4-.05h-.13l.4.05a.19.19,0,0,1-.1,0l.35.16-.06,0,.31.23a.08.08,0,0,1,0,0l.23.31a.08.08,0,0,1,0,0l.15.36a.09.09,0,0,1,0-.05l0,.4v-.05l0,.4v0a1.22,1.22,0,0,0,0-.6,1.09,1.09,0,0,0-.18-.55,1.75,1.75,0,0,0-.89-.69l-.4-.06a1.45,1.45,0,0,0-.76.21l-.3.23a1.49,1.49,0,0,0-.39.66v0c0,.08-.05.33-.06.41h0a1.61,1.61,0,0,0,.06.44,1.82,1.82,0,0,0,.16.4,1.79,1.79,0,0,0,.26.33l0,0h0l.31.24h0a1.54,1.54,0,0,0,.44.19H166l.45.06h0a2.22,2.22,0,0,0,.45-.06,2.12,2.12,0,0,0,.45-.17l0,0a2.91,2.91,0,0,0,.33-.26,1.65,1.65,0,0,0,.44-.74v0a3,3,0,0,0,.06-.42,1.82,1.82,0,0,0-.06-.46,1.54,1.54,0,0,0-.69-.89,1.09,1.09,0,0,0-.55-.18,1.22,1.22,0,0,0-.6,0l-.36.15a1.55,1.55,0,0,0-.54.54l-.15.35a1.55,1.55,0,0,0,0,.8Z"/><path d="M329.68,448.71a19.41,19.41,0,0,0,7.58,18.66,1.51,1.51,0,0,0,2.05-.54,1.53,1.53,0,0,0-.53-2.05,16.27,16.27,0,0,1-6.21-15.27,1.54,1.54,0,0,0-1.05-1.84,1.5,1.5,0,0,0-1.84,1Z"/><path d="M332.89,439.83h-.71a1.27,1.27,0,0,0-.58.13,1.34,1.34,0,0,0-.79.8,1,1,0,0,0-.13.57l.05.4a1.39,1.39,0,0,0,.39.66l.3.24a1.54,1.54,0,0,0,.76.2h.71a1.06,1.06,0,0,0,.58-.13,1.14,1.14,0,0,0,.48-.31,1,1,0,0,0,.31-.48,1.15,1.15,0,0,0,.13-.58l-.06-.39a1.45,1.45,0,0,0-.38-.67l-.3-.23a1.58,1.58,0,0,0-.76-.21Z"/><path d="M486.41,429.1c1.49-.24,3.12,3.25,3.67,4.26a25.09,25.09,0,0,1,2.13,18.18,1.5,1.5,0,0,0,2.89.8,28,28,0,0,0-.32-15.45,27.15,27.15,0,0,0-3.21-6.88c-1.4-2.14-3.15-4.26-6-3.8-1.9.32-1.09,3.21.8,2.89Z"/><path d="M491.43,457.37l-.71.72a1,1,0,0,0-.31.48,1.15,1.15,0,0,0-.13.58,1.72,1.72,0,0,0,.44,1.06l.3.23a1.58,1.58,0,0,0,.76.21l.4-.06a1.57,1.57,0,0,0,.66-.38l.71-.72a1,1,0,0,0,.31-.48,1.06,1.06,0,0,0,.13-.58,1,1,0,0,0-.13-.57,1.11,1.11,0,0,0-.31-.49l-.3-.23a1.55,1.55,0,0,0-.76-.21l-.4.06a1.57,1.57,0,0,0-.66.38Z"/><path d="M407.06,157a26.15,26.15,0,0,0,9.66,20.17,1.54,1.54,0,0,0,2.12,0,1.51,1.51,0,0,0,0-2.12A23.28,23.28,0,0,1,410.06,157a1.5,1.5,0,0,0-3,0Z"/><path d="M409.2,149.2v-.71a1.06,1.06,0,0,0-.13-.58,1.14,1.14,0,0,0-.31-.48,1,1,0,0,0-.48-.31,1.15,1.15,0,0,0-.58-.13l-.4.06a1.47,1.47,0,0,0-.66.38l-.23.3a1.48,1.48,0,0,0-.21.76v.71a1.27,1.27,0,0,0,.13.58,1.34,1.34,0,0,0,.8.79,1,1,0,0,0,.57.13l.4,0a1.39,1.39,0,0,0,.66-.39l.24-.3a1.54,1.54,0,0,0,.2-.76Z"/><path d="M480,139.13l6.79,8.81a1.55,1.55,0,0,0,2.05.54,1.52,1.52,0,0,0,.54-2.06l-6.79-8.8a1.54,1.54,0,0,0-2.05-.54,1.52,1.52,0,0,0-.54,2Z"/><path d="M490.34,154.59l1.32,4.3a1.5,1.5,0,0,0,2.9-.79l-1.33-4.31a1.5,1.5,0,1,0-2.89.8Z"/><path d="M493.72,169.88l.85,7.82a1.53,1.53,0,0,0,1.5,1.5,1.51,1.51,0,0,0,1.5-1.5l-.85-7.82a1.53,1.53,0,0,0-1.5-1.5,1.51,1.51,0,0,0-1.5,1.5Z"/><path d="M494.55,187.38c0,.08,0,.17,0,.26s0,.17,0,.06,0-.09,0,.06l0,.26c0,.26,0,.53.05.79a15.1,15.1,0,0,1,0,1.78c0,.15,0,.3-.05.46s-.06.46,0,.12c0,.28-.08.56-.14.84a14,14,0,0,1-.46,1.72,1.53,1.53,0,0,0,1.05,1.85,1.55,1.55,0,0,0,1.85-1.05,16.86,16.86,0,0,0,.53-7.95,1.5,1.5,0,0,0-1.84-1.05,1.54,1.54,0,0,0-1.05,1.85Z"/><path d="M491.62,206.48l-1.79,7.22a1.5,1.5,0,0,0,2.9.79l1.79-7.21a1.5,1.5,0,0,0-2.9-.8Z"/><path d="M484.88,228.54a35.31,35.31,0,0,0-5.08,7.55,1.54,1.54,0,0,0,.54,2,1.52,1.52,0,0,0,2.05-.54,33.69,33.69,0,0,1,2.15-3.73c.39-.59.8-1.16,1.23-1.73.08-.11.09-.11,0,0l.16-.2.32-.4.75-.88a1.5,1.5,0,0,0-2.12-2.12Z"/><path d="M474.76,242.46l-7.83,10.7a1.52,1.52,0,0,0,.54,2.05,1.53,1.53,0,0,0,2-.54l7.83-10.7a1.51,1.51,0,0,0-.54-2.05,1.54,1.54,0,0,0-2.05.54Z"/><path d="M465.87,258.45a12.7,12.7,0,0,0,.27,8.7A1.53,1.53,0,0,0,468,268.2a1.5,1.5,0,0,0,1-1.84,11.13,11.13,0,0,1-.58-1.86c0-.18-.08-.36-.11-.55s-.06-.47,0-.15c0-.32-.06-.65-.07-1s0-.65,0-1c0-.14,0-.28,0-.42s.09-.62,0-.29a12.4,12.4,0,0,1,.46-1.89,1.5,1.5,0,1,0-2.89-.8Z"/><path d="M471.38,274.47a7.34,7.34,0,0,0,1.37,2.19,6.9,6.9,0,0,0,1.81,1.41,7.22,7.22,0,0,0,4.78.76,1.51,1.51,0,0,0,1.05-1.84,1.55,1.55,0,0,0-1.85-1.05s-.33.05-.05,0,0,0-.06,0l-.42,0-.47,0c-.12,0-.3-.08.11,0l-.21,0a4.84,4.84,0,0,1-.83-.22l-.2-.07c-.29-.1.33.15,0,0l-.38-.19c-.24-.13-.47-.35-.72-.46.1,0,.26.21.07.05l-.16-.14a2.83,2.83,0,0,1-.3-.3l-.29-.31c-.2-.24.2.29,0,0l-.12-.17c-.08-.12-.15-.24-.22-.37s-.28-.6-.09-.14a1.63,1.63,0,0,0-.69-.9,1.49,1.49,0,0,0-1.15-.15,1.53,1.53,0,0,0-1.05,1.85Z"/><path d="M488,278.7a8.63,8.63,0,0,0,6.38-4.82,1.61,1.61,0,0,0,.15-1.16,1.47,1.47,0,0,0-.69-.89,1.52,1.52,0,0,0-2.05.53,8.46,8.46,0,0,1-.41.79c-.07.11-.14.22-.22.33a1.43,1.43,0,0,1-.14.2c.06,0,.22-.28.06-.08s-.37.42-.57.62l-.33.3-.15.13c-.23.19.29-.21.05,0a12.6,12.6,0,0,1-1.46.85c.43-.23,0,0-.13,0l-.42.13a6.72,6.72,0,0,1-.87.18,1.49,1.49,0,0,0-.9.69,1.56,1.56,0,0,0-.15,1.16,1.5,1.5,0,0,0,.69.89,1.71,1.71,0,0,0,1.16.15Z"/><path d="M497.59,269.33a14.05,14.05,0,0,0-1.72-11.83,1.55,1.55,0,0,0-2.06-.54,1.51,1.51,0,0,0-.53,2.05,11,11,0,0,1,1.41,9.52,1.5,1.5,0,0,0,2.9.8Z"/><path d="M485.75,252.54a21.45,21.45,0,0,0-8.22-1.56,1.5,1.5,0,0,0,0,3,19.88,19.88,0,0,1,2,.08l.43.05c.07,0,.45.06.18,0,.34.05.67.1,1,.17a19.63,19.63,0,0,1,3.76,1.13,1.51,1.51,0,0,0,1.85-1.05,1.55,1.55,0,0,0-1.05-1.84Z"/><path d="M460.44,253.41a32.89,32.89,0,0,0-12.93,3.41,1.51,1.51,0,0,0-.54,2.05,1.53,1.53,0,0,0,2,.54,29.11,29.11,0,0,1,11.42-3,1.5,1.5,0,1,0,0-3Z"/><path d="M441.51,261.06a13.9,13.9,0,0,0-9.54,7,1.5,1.5,0,0,0,2.59,1.52,11.66,11.66,0,0,1,.7-1.17l.18-.26s.23-.31.11-.16.11-.12.13-.15a3.47,3.47,0,0,1,.25-.29,11.26,11.26,0,0,1,.9-.93c.16-.14.32-.29.48-.42l.3-.25c-.16.13,0,0,.06,0a12.72,12.72,0,0,1,2.29-1.32c.26-.12-.11,0,.06,0l.3-.11a6.26,6.26,0,0,1,.61-.21,13,13,0,0,1,1.37-.34,1.49,1.49,0,0,0,1.05-1.84,1.54,1.54,0,0,0-1.84-1.05Z"/><path d="M428.65,270.22a8.07,8.07,0,0,0-5.34,7.24,1.5,1.5,0,0,0,3,0l0-.46c0-.19-.06.37,0,.11,0-.09,0-.17,0-.25a5.8,5.8,0,0,1,.24-.84c0-.07.05-.13.07-.2.1-.29-.15.33,0,.05l.18-.38a7.85,7.85,0,0,1,.49-.78s.18-.25,0,0,0,0,0,0,.2-.23.31-.34.44-.38.65-.59c-.28.28-.14.11,0,0l.18-.11a3.14,3.14,0,0,1,.39-.24l.37-.19c.14-.07.3-.06-.05,0a1.57,1.57,0,0,0,.23-.09,1.54,1.54,0,0,0,1.05-1.85,1.51,1.51,0,0,0-1.84-1Z"/><path d="M421.52,278.45l-7.18,7.79a1.51,1.51,0,0,0,0,2.12,1.53,1.53,0,0,0,2.12,0l7.18-7.79a1.5,1.5,0,0,0-2.12-2.12Z"/><path d="M408.15,294.32,401,300a1.5,1.5,0,0,0,0,2.12,1.55,1.55,0,0,0,2.12,0l7.17-5.64a1.5,1.5,0,0,0,0-2.12,1.55,1.55,0,0,0-2.12,0Z"/><path d="M387,309.66l-7.87,4.21a1.51,1.51,0,0,0-.54,2.05,1.54,1.54,0,0,0,2.05.54l7.88-4.21a1.5,1.5,0,0,0-1.52-2.59Z"/><path d="M368.13,319.52c-.54.17-1.09.32-1.65.44l-.9.16c-.43.07.31,0-.12,0l-.46.05a16.29,16.29,0,0,1-1.71.06l-.85,0-.39,0c-.07,0-.62-.07-.26,0a1.59,1.59,0,0,0-1.15.15,1.5,1.5,0,0,0,.36,2.74,17.9,17.9,0,0,0,7.93-.64,1.5,1.5,0,0,0-.8-2.89Z"/><path d="M353.55,320.1a16.66,16.66,0,0,1-11.37-2.59,1.5,1.5,0,0,0-1.51,2.59,19.26,19.26,0,0,0,12.88,3,1.54,1.54,0,0,0,1.5-1.5,1.51,1.51,0,0,0-1.5-1.5Z"/><path d="M337,311.44a16.76,16.76,0,0,1-1.71-1.06l-.38-.26-.25-.19c-.15-.11,0,0,.06.05-.24-.24-.54-.44-.8-.66a18.1,18.1,0,0,1-1.4-1.37c-.24-.25-.46-.51-.68-.77l-.29-.36c-.12-.15.17.24,0,0a2.35,2.35,0,0,0-.19-.25,1.57,1.57,0,0,0-.89-.69,1.49,1.49,0,0,0-1.69,2.2,20.51,20.51,0,0,0,6.7,5.93,1.5,1.5,0,1,0,1.51-2.59Z"/><path d="M332.65,296.38a10.18,10.18,0,0,1-.3-1.21c0-.15-.06-.3-.08-.46,0,.25,0-.32,0-.37a11.28,11.28,0,0,1,0-2.25l0-.23c0,.14,0,.12,0-.06s.07-.41.12-.61a9,9,0,0,1,.28-1.05c.06-.2.13-.4.2-.59s.18-.44.08-.22c.17-.38.36-.75.56-1.11a1.49,1.49,0,1,0-2.58-1.51,13.38,13.38,0,0,0-1.19,10.46,1.5,1.5,0,1,0,2.89-.79Z"/><path d="M338.43,283.89a2.43,2.43,0,0,1,.14-.2c-.26.39-.16.2-.08.11a3.31,3.31,0,0,1,.33-.32c.09-.08-.35.25-.08.07l.19-.12a3.11,3.11,0,0,1,.41-.2l-.36.15a4.09,4.09,0,0,1,.91-.25l-.4.06a3.65,3.65,0,0,1,1,0l-.4-.06a4,4,0,0,1,.84.23l-.36-.15a2.32,2.32,0,0,1,.41.22l.18.12c-.41-.26-.17-.14-.07,0a1.5,1.5,0,0,0,2.12-2.12,4.94,4.94,0,0,0-7.36,1,1.52,1.52,0,0,0,.53,2.05,1.54,1.54,0,0,0,2.06-.54Z"/><path d="M344.52,302.56A7.3,7.3,0,0,0,348,296a1.5,1.5,0,0,0-3,0,5.82,5.82,0,0,1,0,1.18l.05-.4a6.43,6.43,0,0,1-.28,1.15c0,.12-.22.43,0,0-.05.09-.08.19-.13.28s-.19.35-.29.52l-.15.23c-.23.33.16-.19,0,0a5.34,5.34,0,0,1-.39.44c-.14.14-.29.27-.44.4s.32-.23,0,0L343,300a1.5,1.5,0,0,0,1.52,2.59Z"/><path d="M348.64,291.71a16.67,16.67,0,0,0-1.65-8.59,1.52,1.52,0,0,0-2.06-.53,1.53,1.53,0,0,0-.53,2.05c.08.16.15.33.23.5.19.41-.1-.27.06.15s.23.61.33.92a15.7,15.7,0,0,1,.48,1.88c0,.14.05.28.07.41s0,.19,0,0l0,.27c0,.33.06.65.07,1a15.87,15.87,0,0,1,0,1.95,1.51,1.51,0,0,0,1.5,1.5,1.54,1.54,0,0,0,1.5-1.5Z"/><path d="M208.81,372.93l7.83-4.79a1.52,1.52,0,0,0,.54-2.05,1.54,1.54,0,0,0-2.06-.54l-7.82,4.79a1.5,1.5,0,0,0,1.51,2.59Z"/><path d="M230.28,358.08l14-6.26a1.5,1.5,0,0,0,.54-2.05,1.54,1.54,0,0,0-2.05-.54l-14,6.26a1.51,1.51,0,0,0-.54,2.05,1.54,1.54,0,0,0,2.05.54Z"/><path d="M261.08,337.26l13.82-5.54a1.55,1.55,0,0,0,1.05-1.84,1.51,1.51,0,0,0-1.85-1.05l-13.81,5.54a1.54,1.54,0,0,0-1.05,1.84,1.51,1.51,0,0,0,1.84,1.05Z"/><path d="M282.75,327.46l8.55-3.54a1.55,1.55,0,0,0,1.05-1.85A1.53,1.53,0,0,0,290.5,321L282,324.57a1.55,1.55,0,0,0-1.05,1.85,1.52,1.52,0,0,0,1.85,1Z"/><path d="M301.41,320.43a40.74,40.74,0,0,1,9.08-3,1.5,1.5,0,1,0-.8-2.89,43.37,43.37,0,0,0-9.79,3.34,1.51,1.51,0,0,0-.54,2.05,1.54,1.54,0,0,0,2.05.54Z"/><path d="M316.49,313.22a6,6,0,0,0,5.61-2.93,1.5,1.5,0,0,0-2.59-1.51c-.1.16-.2.32-.31.47l.23-.3a5,5,0,0,1-.8.79l.3-.23a5.32,5.32,0,0,1-1,.6l.35-.15a5,5,0,0,1-1.15.31l.4-.06a4.27,4.27,0,0,1-1,0,1.58,1.58,0,0,0-1.06.44,1.56,1.56,0,0,0-.44,1.06,1.54,1.54,0,0,0,.44,1.06,1.68,1.68,0,0,0,1.06.44Z"/><path d="M337.19,307.22l3.55-2.16a1.53,1.53,0,0,0,.69-.89,1.56,1.56,0,0,0-.15-1.16,1.54,1.54,0,0,0-2-.54l-3.55,2.16a1.55,1.55,0,0,0-.69.9,1.49,1.49,0,0,0,.15,1.15,1.51,1.51,0,0,0,2.05.54Z"/><path class="cls-11" d="M464.7,126.64c-1,.57-1.08,1.51-2.61,8.08-1.6,6.89-2,7.84-1.42,9.5.34,1,1.46,3.66,5.7,5.7q4.51-9.15,9-18.29C474.78,131,468.08,124.71,464.7,126.64Z"/><path class="cls-11" d="M472.07,119.52,479.33,130l15.54-8.33c-3.53-4.36-6.82-5.07-8.32-5.22-1.05-.11-2.05,0-6.17.95C476.93,118.19,474.08,119,472.07,119.52Z"/><path class="cls-11" d="M422.67,104.08a23.63,23.63,0,0,0-3.77-1.52c-2.45-.75-3.67-1.13-4.78-.62-1.82.84-2.7,3.52-2.25,5.6.3,1.38,1.14,2.22,2.81,3.85a26.32,26.32,0,0,0,4.66,3.61Z"/><path class="cls-11" d="M411.27,115.72a7.32,7.32,0,0,0-2.85,6.88,7.61,7.61,0,0,0,7.83,5.94q1.08-5.46,2.14-10.92Z"/><path class="cls-11" d="M455.68,76.53c-2.44-1.18-4.61-4.23-3.8-6.65a3.91,3.91,0,0,1,2.37-2.38c2.79-.94,6.92,1.91,10.22,7.13C461.88,77.07,458.37,77.82,455.68,76.53Z"/><path class="cls-11" d="M467.79,71.54a4.57,4.57,0,0,1,.95-9,11.67,11.67,0,0,1,7.6,6.18Z"/><path class="cls-11" d="M450.22,92.2l43.7-20.9-13.3-6.17-45.13,13.3Z"/><path class="cls-11" d="M423.6,91.11l-13.76,43.13,3.8,10,25.65-40.38Z"/><path class="cls-11" d="M473.49,135.19l6.18-4.27c-10.34-24.8-24-39.52-33.73-48C436.79,75,419.8,62.87,416,66.31c-1.34,1.22-.62,4,.47,8.08a57.72,57.72,0,0,0,11.4,21.85,187,187,0,0,0,21.85,21.85A186.42,186.42,0,0,0,473.49,135.19Z"/><path class="cls-12" d="M423.54,80.53a8.1,8.1,0,0,1,3-2.93,8.22,8.22,0,0,1,4.39-1L428,73c-4.5.36-7.24,2.75-7.13,4.64C421,79.14,423,80.23,423.54,80.53Z"/><path class="cls-13" d="M471.12,131.92c-2-2.11-3.06-3.2-3-4.63a4.31,4.31,0,0,1,1.6-3,4.57,4.57,0,0,1,3.92-.72l7.3,9.62-4.81,3.92C475.42,136.39,473.7,134.61,471.12,131.92Z"/><path class="cls-14" d="M132.44,186.49c-2,1-4.91,3-5.7,6.18-1,3.86,1.67,7.43,4.86,11.75a41.1,41.1,0,0,0,7.49,7.72c5-.23,6.53-1.86,7.12-2.85C148.73,205.07,143.28,196,132.44,186.49Z"/><path class="cls-14" d="M158,206.56c-3.47-.77-6.87,1.92-7.84,5-1.32,4.17,1.77,9.31,5.7,9.62s7.58-4.34,7.12-8.55C162.69,210.13,160.93,207.22,158,206.56Z"/><path class="cls-14" d="M484.65,396.8c-.11.13-2.42,2.62-5.22,2a5.93,5.93,0,0,1-2.85-1.68,7.55,7.55,0,0,1-1.19-1.76c-1-2.22-1.39-7.37,2-9.5,2.78-1.75,6.17-.29,6.53-.12a13.9,13.9,0,0,1,5.23-1.78,30.82,30.82,0,0,1,5.46,0,7.83,7.83,0,0,1,6.53-1.78,7,7,0,0,1,5.58,6.41c.07,3.31-2.8,5.38-3.56,5.94a10,10,0,0,1-7.6,1.54,14.51,14.51,0,0,1-4.34,1.33A14.71,14.71,0,0,1,484.65,396.8Z"/><circle class="cls-14" cx="514.52" cy="385.46" r="6.83"/><circle class="cls-14" cx="105.97" cy="371.23" r="7.42"/><path class="cls-14" d="M115.3,382.45a7.92,7.92,0,0,0-7.09,3.31c-4.08,5.64-.3,17.89,7.13,19.47,4.56,1,8.74-2.46,9.73-3.32a27,27,0,0,0-2.13-10.45C121.45,388,119.36,383.06,115.3,382.45Z"/><path class="cls-14" d="M125.31,408.32a9.27,9.27,0,0,0-4,4c-2.16,4.59,1,10.18,2.62,13.06,8.19,14.25,39.89,46.95,42.51,49.64a7.28,7.28,0,1,0,10.21-10.21A206,206,0,0,1,132,411.41Z"/></svg>